<svg xmlns="http://www.w3.org/2000/svg" width="2253" height="960" fill-rule="evenodd"><path d="M1073.33 833.548c4.624 2.66 11.56 4.973 18.838 4.973 9.133 0 14.22-4.28 14.22-10.634 0-5.897-3.93-9.364-13.87-12.945-12.832-4.623-21.036-11.446-21.036-22.655 0-12.718 10.633-22.427 27.5-22.427 8.434 0 14.68 1.85 18.723 3.934l-3.466 11.44c-2.775-1.505-8.2-3.7-15.5-3.7-9.015 0-12.945 4.855-12.945 9.365 0 6 4.506 8.784 14.913 12.827 13.52 5.086 20.106 11.903 20.106 23.117 0 12.482-9.473 23.348-29.6 23.348-8.204 0-16.757-2.313-21.03-4.855l3.118-11.8zm94.087-18.606c.118-5.203-2.193-13.756-11.67-13.756-8.784 0-12.483 7.972-13.058 13.756h24.73zm-24.73 9.936c.344 10.17 8.322 14.568 17.333 14.568 6.6 0 11.33-.925 15.605-2.548l2.08 9.827c-4.854 1.967-11.558 3.468-19.648 3.468-18.262 0-29.014-11.2-29.014-28.434 0-15.6 9.482-30.282 27.514-30.282 18.256 0 24.267 15.026 24.267 27.4 0 2.66-.226 4.74-.463 6h-37.674zm89.8 22.427c-3.005 1.387-8.902 2.888-15.95 2.888-17.57 0-29.014-11.2-29.014-28.665 0-16.875 11.56-30.05 31.325-30.05 5.2 0 10.52 1.155 13.757 2.66l-2.548 10.634c-2.3-1.043-5.66-2.198-10.747-2.198-10.864 0-17.337 7.972-17.22 18.26 0 11.56 7.5 18.15 17.22 18.15 4.973 0 8.436-1.042 11.2-2.2l1.967 10.52zm59.76-15.145c0 6.703.23 12.252.462 16.875h-12.483l-.694-8.553h-.23c-2.43 4.047-7.978 9.823-18.032 9.823-10.3 0-19.648-6.124-19.648-24.504v-33.05h14.22v30.627c0 9.36 3 15.37 10.515 15.37 5.666 0 9.365-4.043 10.865-7.624.463-1.274.8-2.775.8-4.397V792.75h14.215v39.4zm14.224-21.265c0-7.63-.118-13.06-.463-18.145h12.365l.462 10.747h.463c2.774-7.973 9.364-12.02 15.374-12.02a14.64 14.64 0 0 1 3.355.35v13.407c-1.16-.235-2.43-.462-4.16-.462-6.822 0-11.445 4.387-12.718 10.747-.228 1.273-.463 2.773-.463 4.392v29.127h-14.214v-38.142zm39.995 38.14h14.332V792.75h-14.332v56.286zm15.14-72.006c0 4.275-3.118 7.624-8.086 7.624-4.74 0-7.86-3.35-7.86-7.624 0-4.396 3.236-7.746 7.974-7.746 4.854 0 7.86 3.35 7.972 7.746h0zm13.298 32.477c0-6.473-.118-11.907-.463-16.757h12.484l.693 8.436h.35c2.425-4.393 8.548-9.7 17.913-9.7 9.827 0 19.998 6.358 19.998 24.154v33.405h-14.22v-31.783c0-8.096-3.005-14.22-10.747-14.22-5.666 0-9.596 4.048-11.096 8.323-.462 1.273-.58 3.004-.58 4.623v33.056h-14.332v-39.53zm101.717 5.78c0-1.27-.113-2.656-.462-3.816-1.5-5.2-5.548-9.13-11.56-9.13-7.972 0-13.87 6.934-13.87 18.375 0 9.595 4.855 17.34 13.757 17.34 5.313 0 9.936-3.47 11.56-8.556a24.63 24.63 0 0 0 .575-5.086v-9.13zm14.682-22.536c-.237 3.8-.463 8.435-.463 16.182v31.9c0 11.785-2.43 20.225-8.323 25.542-5.896 5.198-13.987 6.82-21.728 6.82-7.17 0-14.795-1.505-19.654-4.5l3.123-10.746c3.585 2.077 9.595 4.275 16.413 4.275 9.246 0 16.18-4.855 16.18-16.993v-4.85h-.23c-3.236 4.968-9.015 8.32-16.413 8.32-13.987 0-23.923-11.557-23.923-27.512 0-18.494 12.02-29.703 25.54-29.703 8.554 0 13.64 4.162 16.296 8.785h.235l.576-7.5h12.37zm51.09 45.997c1.85.235 4.278.35 7.515.35 9.13 0 17.224-3.467 17.224-13.058 0-9.02-7.86-12.72-17.686-12.72h-7.053v25.43zm0-35.826h7.284c9.822 0 15.37-4.623 15.37-11.214 0-7.28-5.548-10.633-14.558-10.633-4.16 0-6.6.23-8.096.58v21.267zm-14.097-30.75c4.505-.925 12.7-1.614 20.688-1.614 10.515 0 16.988 1.27 22.3 4.968 4.85 2.892 8.086 7.977 8.086 14.563 0 7.166-4.506 13.757-12.945 16.875v.23c8.2 2.08 15.72 8.554 15.72 19.305 0 6.935-3 12.364-7.5 16.063-5.548 4.855-14.682 7.28-28.896 7.28-7.86 0-13.87-.575-17.45-1.038V772.17zm100.21 42.77c.118-5.203-2.194-13.756-11.672-13.756-8.784 0-12.482 7.972-13.058 13.756h24.73zm-24.73 9.936c.344 10.17 8.322 14.568 17.333 14.568 6.6 0 11.33-.925 15.605-2.548l2.08 9.827c-4.854 1.967-11.56 3.468-19.65 3.468-18.262 0-29.014-11.2-29.014-28.434 0-15.6 9.482-30.282 27.514-30.282 18.256 0 24.267 15.026 24.267 27.4 0 2.66-.226 4.74-.462 6h-37.675zm64.725-48.196v16.068h13.525v10.634H1668.5v24.848c0 6.817 1.85 10.402 7.284 10.402 2.425 0 4.274-.35 5.548-.693l.23 10.864c-2.08.812-5.78 1.388-10.3 1.388-5.198 0-9.6-1.737-12.247-4.624-3-3.237-4.396-8.322-4.396-15.72v-26.466h-8.086V792.75h8.086v-12.718l13.87-3.35zm39.416 0v16.068h13.526v10.634h-13.526v24.848c0 6.817 1.85 10.402 7.284 10.402 2.425 0 4.275-.35 5.55-.693l.23 10.864c-2.08.812-5.78 1.388-10.3 1.388-5.198 0-9.6-1.737-12.247-4.624-3-3.237-4.396-8.322-4.396-15.72v-26.466h-8.086V792.75h8.086v-12.718l13.87-3.35zm57.22 38.26c.113-5.203-2.198-13.756-11.677-13.756-8.783 0-12.482 7.972-13.062 13.756h24.74zm-24.74 9.936c.35 10.17 8.322 14.568 17.342 14.568 6.585 0 11.323-.925 15.6-2.548l2.08 9.827c-4.855 1.967-11.558 3.468-19.65 3.468-18.263 0-29-11.2-29-28.434 0-15.6 9.473-30.282 27.504-30.282 18.266 0 24.276 15.026 24.276 27.4 0 2.66-.235 4.74-.462 6h-37.684zm48.436-13.983c0-7.63-.117-13.06-.462-18.145h12.365l.462 10.747h.463c2.774-7.973 9.364-12.02 15.374-12.02a14.71 14.71 0 0 1 3.355.349v13.407c-1.16-.235-2.43-.462-4.16-.462-6.822 0-11.445 4.387-12.718 10.747-.228 1.273-.463 2.773-.463 4.392v29.127h-14.215v-38.142zm63.347-39.76h14.215v66h32.018v11.902H1852.2zm55.254 77.902h14.332V792.75h-14.332v56.286zm15.14-72.006c0 4.275-3.118 7.624-8.086 7.624-4.74 0-7.86-3.35-7.86-7.624 0-4.396 3.236-7.746 7.972-7.746 4.855 0 7.86 3.35 7.973 7.746h0zm22.314 15.72l9.134 28.547c1.613 4.968 2.773 9.477 3.8 14.1h.35c1.037-4.623 2.3-9.015 3.8-14.1l8.898-28.547h15.03l-21.503 56.286h-13.983l-20.918-56.286h15.37zm81.836 22.192c.113-5.203-2.198-13.756-11.676-13.756-8.784 0-12.482 7.972-13.063 13.756h24.74zm-24.74 9.936c.35 10.17 8.322 14.568 17.342 14.568 6.585 0 11.323-.925 15.6-2.548l2.08 9.827c-4.854 1.967-11.558 3.468-19.65 3.468-18.262 0-29-11.2-29-28.434 0-15.6 9.474-30.282 27.504-30.282 18.266 0 24.276 15.026 24.276 27.4 0 2.66-.235 4.74-.462 6H2002zm47.743 11.095c3.237 1.968 9.36 4.048 14.446 4.048 6.246 0 9.02-2.543 9.02-6.24 0-3.817-2.312-5.78-9.246-8.204-10.983-3.817-15.607-9.827-15.493-16.418 0-9.935 8.2-17.68 21.267-17.68 6.246 0 11.676 1.617 14.912 3.35l-2.773 10.057c-2.43-1.388-6.936-3.236-11.904-3.236-5.085 0-7.86 2.425-7.86 5.896 0 3.58 2.656 5.313 9.822 7.86 10.17 3.698 14.9 8.897 15.026 17.218 0 10.172-7.978 17.57-22.885 17.57-6.822 0-12.945-1.62-17.106-3.93l2.773-10.3z" fill="#3d3e3b"/><path d="M468.576 297.343c28.172 16.3 55.45 36.276 80.824 59.817 2.46 2.267 4.728 4.606 7.115 6.92 35.094-13.445 73.492-20.977 113.82-20.977.314 0 .628.054.942.054V245.8c-63.218-5.35-135.455 12.572-202.7 51.542" fill="#63b982"/><path d="M380.927 363.83l6.85-6.668c25.35-23.54 52.652-43.518 80.8-59.817-66.908-38.8-138.783-56.747-201.782-51.633v97.454c.362 0 .675-.06 1.037-.06 40.062 0 78.195 7.446 113.096 20.724" fill="#49b07d"/><path d="M549.4 357.16c-25.373-23.54-52.652-43.517-80.824-59.817-28.147 16.3-55.45 36.276-80.8 59.817-2.34 2.194-4.558 4.45-6.85 6.668 32.754 12.458 62.517 30.24 88.252 52.057 25.494-21.648 54.897-39.375 87.337-51.804l-7.116-6.92" fill="#2a9c92"/><path d="M469.18 415.885c-25.734-21.816-55.498-39.6-88.25-52.057-81.187 78.642-107.14 185.99-105.982 270.438l96.743-13.842c0-81.11 37.723-153.823 97.5-204.54" fill="#34b0ba"/><path d="M556.516 364.082c-32.44 12.428-61.842 30.155-87.337 51.804 59.744 50.668 97.3 123.48 97.3 204.538l97.08 13.083c3.594-82.6-26.024-190.83-107.042-269.425" fill="#c3a741"/><path d="M529.743 169.487c0 37.735-27.375 68.324-61.167 68.324-33.767 0-61.143-30.59-61.143-68.324 0-37.728 27.376-68.324 61.143-68.324 33.792 0 61.167 30.596 61.167 68.324" fill="#49b07d"/><path d="M274.946 634.267c.025-32.55 3.69-66.16 11.385-99.896.748-3.262 1.64-6.404 2.46-9.63-29.208-23.655-54.92-53.153-75.084-88.072-.168-.278-.264-.58-.434-.838l-84.304 48.68c26.978 57.415 78.613 111 145.977 149.756" fill="#4280b6"/><path d="M376.368 676.946l-9.213-2.604c-33.068-10.203-64.014-23.855-92.2-40.076-.143 77.34 20.262 148.564 56.2 200.59l84.394-48.733c-.192-.314-.4-.567-.602-.892-20.02-34.672-32.634-71.43-38.568-108.284" fill="#4070a8"/><path d="M286.33 534.37c-7.693 33.736-11.36 67.347-11.385 99.896 28.196 16.22 59.14 29.873 92.21 40.075 3.063.928 6.126 1.724 9.213 2.604-5.595-34.6-5.09-69.27.94-102.46-31.5-11.263-61.528-27.845-88.518-49.746l-2.46 9.63" fill="#4295c5"/><path d="M377.31 574.487c-6.03 33.188-6.536 67.85-.94 102.46 108.682 30.97 223.177-.663 287.2-43.44l-60.37-76.862c-70.236 40.55-152.072 44.228-225.878 17.842" fill="#66aed4"/><path d="M133.637 645.23c32.68-18.86 72.86-10.443 89.766 18.802 16.883 29.245 4.076 68.258-28.605 87.12-32.676 18.873-72.87 10.456-89.755-18.8s-4.075-68.258 28.594-87.12" fill="#40629d"/><path d="M663.558 633.507c-28.22 16.233-59.142 29.884-92.21 40.074-3.21 1.002-6.368 1.798-9.553 2.702-5.908 37.11-18.595 74.143-38.735 109.055-.168.278-.385.52-.53.784l84.32 48.686c36.227-52.074 56.825-123.588 56.706-201.3" fill="#e98a31"/><path d="M649.81 524.337l2.34 9.28c7.72 33.73 11.36 67.353 11.41 99.89 67.027-38.566 118.52-91.827 145.608-148.948l-84.394-48.727c-.192.307-.29.62-.483.94-20.018 34.677-45.537 63.98-74.48 87.564" fill="#f3ba46"/><path d="M571.35 673.58c33.067-10.2 63.988-23.84 92.208-40.074-.048-32.536-3.69-66.16-11.408-99.89-.723-3.136-1.568-6.18-2.34-9.28-27.183 22.153-55.644 39.75-87.408 51.116 6.005 32.923 4.848 66.52-.604 100.83l9.552-2.702" fill="#9c8959"/><path d="M743.706 750.39c-32.682-18.862-45.49-57.863-28.605-87.12s57.09-37.675 89.748-18.802c32.682 18.862 45.49 57.874 28.606 87.132-16.908 29.243-57.092 37.65-89.75 18.79" fill="#e98a31"/><path d="M1068.7 424.725H930.65l-.23-69.144h345.727v69.144H1137.86v276.583h-69.15zm374.187 138.288H1340.1v-69.145h218.956c38.422 0 57.62-11.522 57.62-34.574 0-23.046-19.2-34.57-57.62-34.57H1340.1V355.58h230.486c76.832 0 115.24 34.57 115.24 103.713 0 69.15-38.4 103.72-115.24 103.72h-21.43l162.263 138.295h-106.26l-162.262-138.295zm652.62-46.093v184.387h-230.483c-76.832 0-115.244-38.4-115.244-115.243v-115.24c0-76.833 38.412-115.242 115.244-115.242h230.483v69.144h-221.03c-37.034 0-55.56 18.44-55.56 55.318V576.6c0 37.035 18.596 55.547 55.787 55.547h151.652V516.92h69.15z" fill="#3d3e3b"/></svg>